<svg width="24" height="24" viewBox="0 0 24 24" fill="none" xmlns="http://www.w3.org/2000/svg">
<circle cx="12" cy="12" r="12" fill="#4E6297"/>
<path d="M17.3992 8.2908C17.3992 7.39235 16.6065 6.59961 15.708 6.59961H8.89041C7.99196 6.59961 7.19922 7.39235 7.19922 8.2908V15.1084C7.19922 16.0069 7.99196 16.7996 8.89041 16.7996H12.3256V12.9416H11.0573V11.2504H12.3256V10.5633C12.3256 9.40065 13.1712 8.3965 14.2282 8.3965H15.6023V10.0877H14.2282C14.0697 10.0877 13.9111 10.2462 13.9111 10.5633V11.2504H15.6023V12.9416H13.9111V16.7996H15.708C16.6065 16.7996 17.3992 16.0069 17.3992 15.1084V8.2908Z" fill="white"/>
</svg>
