<svg width="53" height="13" viewBox="0 0 53 13" fill="none" xmlns="http://www.w3.org/2000/svg">
<g clip-path="url(#clip0_2558_13899)">
<path d="M13.5783 4.11836C13.1532 3.21913 12.3474 2.63826 11.133 2.63826C10.7603 2.64481 10.394 2.73763 10.0625 2.90949C9.73094 3.08138 9.44297 3.32777 9.2208 3.62964L9.17648 3.68409V0.159805C9.17648 0.139437 9.16848 0.119905 9.15419 0.105503C9.13991 0.0911005 9.12053 0.0830078 9.10033 0.0830078H7.38336C7.36341 0.0833738 7.34441 0.0916257 7.33042 0.105988C7.31641 0.120351 7.30859 0.139677 7.30859 0.159805V10.2691C7.30859 10.2891 7.31649 10.3083 7.33051 10.3224C7.34453 10.3366 7.36353 10.3445 7.38336 10.3445H9.22219C9.24215 10.3445 9.26131 10.3366 9.27556 10.3225C9.28979 10.3084 9.29798 10.2892 9.29835 10.2691V5.9587C9.29835 5.12091 9.8522 4.52747 10.7384 4.52747C11.7076 4.52747 11.9527 5.33175 11.9527 6.15137V10.2691C11.9527 10.2891 11.9606 10.3083 11.9746 10.3224C11.9886 10.3366 12.0077 10.3445 12.0275 10.3445H13.8621C13.8821 10.3445 13.9013 10.3366 13.9155 10.3225C13.9298 10.3084 13.938 10.2892 13.9384 10.2691V5.90563C13.9384 5.75623 13.9384 5.6096 13.919 5.46719C13.8874 5.00048 13.772 4.54341 13.5783 4.11836Z" fill="#5A31F4"/>
<path d="M4.39632 5.6164C4.39632 5.6164 3.4603 5.39438 3.11552 5.30502C2.77073 5.21566 2.16841 5.02575 2.16841 4.56637C2.16841 4.10698 2.65442 3.96036 3.14737 3.96036C3.6403 3.96036 4.18863 4.08045 4.23155 4.63199C4.23328 4.65188 4.24236 4.67035 4.25697 4.68382C4.27159 4.69726 4.29068 4.70467 4.31047 4.70461L6.12298 4.69762C6.13365 4.69765 6.14421 4.69546 6.15399 4.69119C6.16378 4.68691 6.17258 4.68065 6.17986 4.67278C6.18714 4.66493 6.19274 4.65563 6.19629 4.64549C6.19983 4.63534 6.20129 4.62457 6.20052 4.61383C6.08837 2.8489 4.55278 2.21777 3.13628 2.21777C1.4567 2.21777 0.228515 3.33482 0.228515 4.56637C0.228515 5.46559 0.480522 6.30897 2.46195 6.89542C2.8095 6.99735 3.28168 7.12999 3.69431 7.2459C4.19001 7.38554 4.45724 7.59638 4.45724 7.92869C4.45724 8.31407 3.90339 8.58216 3.35922 8.58216C2.57135 8.58216 2.01195 8.28754 1.96625 7.75833C1.96387 7.73898 1.95453 7.72115 1.93997 7.70827C1.92542 7.6954 1.90669 7.68836 1.88733 7.68851L0.0789727 7.69689C0.0683709 7.69689 0.0578779 7.69904 0.0481172 7.70322C0.0383566 7.70739 0.0295297 7.7135 0.0221634 7.7212C0.0147972 7.72887 0.00904138 7.73799 0.0052419 7.74796C0.00144243 7.75796 -0.000323379 7.7686 4.86164e-05 7.77929C0.0831277 9.44509 1.67825 10.3429 3.16538 10.3429C5.38082 10.3429 6.38191 9.08624 6.38191 7.90914C6.38469 7.3562 6.25868 6.09672 4.39632 5.6164Z" fill="#5A31F4"/>
<path d="M27.7133 2.63559C26.7927 2.63559 26.0213 3.14942 25.5242 3.76941V2.7082C25.5242 2.68844 25.5165 2.66946 25.5027 2.65537C25.4892 2.64127 25.4704 2.63316 25.4508 2.63281H23.7311C23.7114 2.63281 23.6922 2.64074 23.6782 2.65487C23.6642 2.66903 23.6562 2.68821 23.6562 2.7082V12.622C23.6567 12.6417 23.6648 12.6607 23.6788 12.6744C23.6928 12.6883 23.7116 12.6961 23.7311 12.6961H25.5714C25.5908 12.6961 25.6094 12.6883 25.6232 12.6744C25.6369 12.6605 25.6446 12.6416 25.6446 12.622V9.36303H25.6724C25.9645 9.81262 26.7635 10.3516 27.8076 10.3516C29.7709 10.3516 31.4076 8.70955 31.4076 6.49082C31.4091 4.36144 29.7807 2.63559 27.7133 2.63559ZM27.5431 8.46241C27.1556 8.47212 26.7736 8.36514 26.4467 8.15514C26.1198 7.94512 25.8621 7.64161 25.7068 7.28334C25.5516 6.92505 25.5057 6.52824 25.5752 6.14356C25.6444 5.75887 25.826 5.40376 26.0963 5.12356C26.3668 4.84331 26.7139 4.6507 27.0933 4.57028C27.4727 4.48985 27.8673 4.52525 28.2266 4.67197C28.5861 4.81868 28.8939 5.07006 29.1111 5.39402C29.3281 5.71799 29.4445 6.09982 29.4456 6.49082C29.4496 6.74639 29.4034 7.00026 29.31 7.23784C29.2165 7.47542 29.0773 7.69203 28.9005 7.87522C28.7239 8.05841 28.5129 8.20459 28.2798 8.30535C28.0469 8.40613 27.7966 8.45949 27.5431 8.46241Z" fill="#5A31F4"/>
<path d="M18.2123 2.2002C16.4967 2.2002 15.641 2.78804 14.9541 3.25861L14.9334 3.27256C14.898 3.297 14.8731 3.33405 14.8637 3.37624C14.8541 3.41844 14.8607 3.46269 14.8822 3.50017L15.5607 4.67863C15.5734 4.7007 15.5908 4.71965 15.6116 4.73412C15.6324 4.74861 15.6561 4.75828 15.6812 4.76243C15.7056 4.76687 15.7307 4.76579 15.7546 4.75927C15.7785 4.75274 15.8008 4.74097 15.8197 4.72471L15.8736 4.68005C16.2267 4.38123 16.793 3.98188 18.1638 3.87297C18.9267 3.81155 19.5859 4.0126 20.0719 4.47059C20.6064 4.96769 20.9263 5.77056 20.9263 6.61813C20.9263 8.17782 20.0151 9.15801 18.5516 9.17757C17.3455 9.17059 16.5354 8.53666 16.5354 7.59974C16.5354 7.10264 16.7584 6.7787 17.1932 6.45476C17.2264 6.43081 17.2498 6.39557 17.2593 6.35553C17.2687 6.31549 17.2634 6.27336 17.2444 6.23694L16.6352 5.07519C16.6239 5.05441 16.6087 5.03606 16.5904 5.0212C16.5721 5.00634 16.5511 4.99528 16.5285 4.98863C16.5055 4.98171 16.4813 4.97975 16.4575 4.98286C16.4335 4.98599 16.4106 4.99414 16.3901 5.00679C15.7061 5.4159 14.867 6.16432 14.9126 7.60253C14.968 9.43309 16.4773 10.8308 18.4393 10.8881H18.5377H18.672C21.0036 10.8112 22.6874 9.06587 22.6874 6.69912C22.6874 4.52644 21.1172 2.2002 18.2123 2.2002Z" fill="#5A31F4"/>
<path d="M38.6591 3.31738H37.4903C37.4631 3.31774 37.4368 3.3289 37.4174 3.34845C37.3979 3.36801 37.3868 3.39444 37.3867 3.42211V5.89496C37.3868 5.92251 37.398 5.94877 37.4175 5.96811C37.4369 5.98745 37.4631 5.9983 37.4903 5.9983H38.6591C39.3708 5.9983 39.8957 5.43279 39.8957 4.65784C39.8957 3.88288 39.3708 3.31738 38.6591 3.31738Z" fill="#5A31F4"/>
<path d="M42.25 7.69189C42.25 8.05074 42.5504 8.25041 43.0738 8.25041C43.7855 8.25041 44.2063 7.86223 44.2063 7.17385V6.97559L43.1403 7.03143C42.578 7.05935 42.25 7.29535 42.25 7.69189Z" fill="#5A31F4"/>
<path d="M50.9047 0.105481H35.2027C34.9453 0.105481 34.69 0.156669 34.4522 0.256118C34.2142 0.355568 33.998 0.501332 33.816 0.685077C33.6338 0.868824 33.4894 1.08695 33.391 1.327C33.2924 1.56704 33.2419 1.8243 33.2422 2.08406V10.7524C33.2422 11.2769 33.4487 11.7799 33.8164 12.1509C34.1841 12.5219 34.6828 12.7306 35.2027 12.7309H50.9047C51.1627 12.7317 51.4183 12.6812 51.6568 12.5822C51.8952 12.4833 52.112 12.3379 52.2949 12.1544C52.4774 11.9709 52.6227 11.7529 52.7218 11.5128C52.8209 11.2727 52.872 11.0152 52.8725 10.7552V2.08685C52.8729 1.82626 52.8224 1.56813 52.7237 1.32731C52.625 1.08649 52.48 0.867721 52.2972 0.683585C52.1144 0.499452 51.8972 0.353586 51.6583 0.254374C51.4194 0.155162 51.1633 0.10456 50.9047 0.105481ZM38.7197 6.97117H37.4847C37.4572 6.97117 37.4309 6.98218 37.4112 7.00182C37.3918 7.02147 37.3808 7.04811 37.3808 7.07589V8.84919C37.3808 8.87696 37.3699 8.9036 37.3505 8.92324C37.3309 8.94289 37.3047 8.95392 37.277 8.95392H36.4073C36.3801 8.95356 36.3537 8.9424 36.3343 8.92283C36.3149 8.90329 36.3041 8.87686 36.3036 8.84919V2.45268C36.3036 2.42492 36.3145 2.39828 36.3342 2.37863C36.3536 2.359 36.3798 2.34796 36.4073 2.34796H38.7197C40.0297 2.34796 40.967 3.31002 40.967 4.66026C40.967 6.01049 40.0366 6.97394 38.7268 6.97394L38.7197 6.97117ZM45.2277 8.84781C45.2279 8.86167 45.2255 8.87543 45.2202 8.8883C45.215 8.90117 45.2074 8.91289 45.1978 8.92276C45.188 8.93262 45.1766 8.94047 45.1638 8.94582C45.1513 8.95116 45.1376 8.95392 45.1238 8.95392H44.3027C44.289 8.95392 44.2753 8.95116 44.2627 8.94582C44.2499 8.94047 44.2384 8.93262 44.2288 8.92276C44.2192 8.91289 44.2115 8.90117 44.2065 8.8883C44.2013 8.87543 44.1987 8.86167 44.199 8.84781V8.65652C44.2002 8.63972 44.1963 8.62293 44.1873 8.60866C44.1786 8.59438 44.1655 8.58335 44.1498 8.57722C44.1343 8.5711 44.1172 8.57022 44.1011 8.57471C44.0849 8.57916 44.0707 8.58876 44.0605 8.60205C43.8153 8.87154 43.4166 9.06701 42.781 9.06701C41.8451 9.06701 41.226 8.57552 41.226 7.72656C41.217 7.51956 41.2594 7.31356 41.3494 7.12725C41.4392 6.94097 41.574 6.78027 41.7412 6.65979C42.079 6.40425 42.6024 6.27161 43.3791 6.24088L44.203 6.21296V5.96999C44.203 5.47988 43.8762 5.27184 43.3514 5.27184C42.8267 5.27184 42.4957 5.45895 42.4183 5.76474C42.4121 5.78633 42.3989 5.80523 42.3807 5.81839C42.3628 5.83156 42.3408 5.83822 42.3185 5.83734H41.5058C41.4908 5.83772 41.4759 5.83478 41.4622 5.82876C41.4487 5.82272 41.4363 5.81373 41.4263 5.80242C41.4165 5.79109 41.4091 5.77775 41.405 5.76327C41.4007 5.7488 41.3996 5.73358 41.4019 5.71866C41.5238 4.99257 42.1191 4.44103 43.3889 4.44103C44.7376 4.44103 45.2235 5.07357 45.2235 6.28137L45.2277 8.84781ZM50.3427 4.69794L48.515 9.61438C48.0995 10.7565 47.3726 11.0498 46.5763 11.0498C46.4264 11.0535 46.2766 11.0351 46.1319 10.9953C46.1093 10.9892 46.0895 10.9758 46.075 10.9571C46.0609 10.9384 46.0532 10.9156 46.0529 10.892V10.145C46.0529 10.1293 46.0563 10.1139 46.0628 10.0997C46.0694 10.0856 46.0788 10.073 46.0908 10.063C46.1028 10.053 46.1167 10.0458 46.1316 10.0419C46.1466 10.0379 46.1623 10.0374 46.1776 10.0402C46.3032 10.0643 46.4306 10.0764 46.5584 10.0766C46.7785 10.0877 46.9961 10.024 47.1762 9.89562C47.356 9.76726 47.4881 9.58168 47.5511 9.36863L47.6053 9.19687C47.6136 9.17389 47.6136 9.14866 47.6053 9.12566L45.8965 4.69936C45.8913 4.68353 45.8898 4.66667 45.8924 4.65018C45.8948 4.63368 45.9011 4.61799 45.9104 4.6044C45.9201 4.5908 45.9328 4.57967 45.9474 4.5719C45.962 4.56414 45.9783 4.55995 45.9948 4.55972H46.8257C46.8469 4.55993 46.8675 4.56654 46.8851 4.57875C46.9026 4.59093 46.9161 4.60814 46.9239 4.62814L48.0843 7.7503C48.092 7.77069 48.1055 7.78826 48.1234 7.80066C48.1413 7.81307 48.1624 7.8197 48.184 7.8197C48.2055 7.8197 48.2268 7.81307 48.2445 7.80066C48.2623 7.78826 48.2761 7.77069 48.2836 7.7503L49.2904 4.63653C49.297 4.61529 49.3104 4.5968 49.3283 4.58373C49.3463 4.57066 49.3678 4.56372 49.3899 4.56391H50.2416C50.258 4.56384 50.2742 4.5677 50.289 4.57511C50.3036 4.58253 50.3165 4.59333 50.3264 4.60664C50.3362 4.61995 50.3427 4.63539 50.3455 4.65174C50.3484 4.66807 50.3475 4.68486 50.3427 4.70074V4.69794Z" fill="#5A31F4"/>
</g>
<defs>
<clipPath id="clip0_2558_13899">
<rect width="53" height="12.8385" fill="white" transform="translate(0 0.0810547)"/>
</clipPath>
</defs>
</svg>
