<svg width="24" height="24" viewBox="0 0 24 24" fill="none" xmlns="http://www.w3.org/2000/svg">
<circle cx="12" cy="12" r="12" fill="#55ACE3"/>
<path d="M18.3616 8.9398C17.9416 9.1198 17.4616 9.2398 16.9816 9.2998C17.4616 8.9998 17.8816 8.51981 18.0616 7.97981C17.5816 8.27981 17.1016 8.45981 16.5016 8.57981C16.0816 8.09981 15.4216 7.7998 14.7616 7.7998C13.4416 7.7998 12.3616 8.8798 12.3616 10.1998C12.3616 10.3798 12.3616 10.5598 12.4216 10.7398C10.4416 10.6198 8.64156 9.6598 7.44156 8.2198C7.26156 8.5798 7.14156 8.9998 7.14156 9.4198C7.14156 10.2598 7.56156 10.9798 8.22156 11.3998C7.80156 11.3998 7.44156 11.2798 7.14156 11.0998C7.14156 12.2398 7.98156 13.2598 9.06156 13.4398C8.88156 13.4998 8.64156 13.4998 8.40156 13.4998C8.22156 13.4998 8.10156 13.4998 7.92156 13.4398C8.22156 14.3998 9.12156 15.1198 10.2016 15.1198C9.36156 15.7798 8.34156 16.1398 7.20156 16.1398C7.02156 16.1398 6.84156 16.1398 6.60156 16.0798C7.68156 16.7398 8.94156 17.1598 10.3216 17.1598C14.7616 17.1598 17.1616 13.4998 17.1616 10.3198V10.0198C17.6416 9.8398 18.0616 9.4198 18.3616 8.9398Z" fill="white"/>
</svg>
