<svg width="24" height="24" viewBox="0 0 24 24" fill="none" xmlns="http://www.w3.org/2000/svg">
<circle cx="12" cy="12" r="12" fill="#7294C7"/>
<path d="M17.8841 15.0695C17.8841 15.0197 17.8343 15.0197 17.8343 14.9699C17.635 14.5714 17.1867 14.0733 16.5889 13.5253C16.2901 13.2763 16.1406 13.077 16.041 12.9774C15.8915 12.7781 15.8916 12.6287 15.9414 12.4294C15.9912 12.28 16.1904 12.0309 16.5391 11.5826C16.7384 11.3335 16.838 11.1841 16.9874 11.0346C17.7346 10.0384 18.0833 9.39077 17.9837 9.09189L17.9339 9.04208C17.8841 8.99227 17.8343 8.94246 17.7346 8.94246C17.635 8.89264 17.4856 8.89264 17.3361 8.94246H15.4432C15.3934 8.94246 15.3934 8.94246 15.2938 8.94246C15.244 8.94246 15.1942 8.94246 15.1942 8.94246H15.1443H15.0945L15.0447 8.99227C14.9949 9.04208 14.9949 9.04208 14.9949 9.09189C14.7956 9.63984 14.5466 10.0882 14.2975 10.5863C14.1481 10.8354 13.9986 11.0844 13.8492 11.2837C13.6997 11.483 13.6001 11.6324 13.5005 11.732C13.4009 11.8317 13.3012 11.8815 13.2514 11.9811C13.2016 12.0309 13.102 12.0807 13.102 12.0309C13.0522 12.0309 13.0023 12.0309 13.0023 11.9811C12.9525 11.9313 12.9027 11.8815 12.8529 11.8316C12.8031 11.7818 12.8031 11.6822 12.7533 11.5826C12.7533 11.483 12.7533 11.3833 12.7533 11.3335C12.7533 11.2837 12.7533 11.1343 12.7533 11.0346C12.7533 10.8852 12.7533 10.7856 12.7533 10.7357C12.7533 10.5863 12.7533 10.3871 12.7533 10.1878C12.7533 9.98855 12.7533 9.8391 12.7533 9.73947C12.7533 9.63984 12.7533 9.49041 12.7533 9.39078C12.7533 9.24134 12.7533 9.14171 12.7533 9.09189C12.7533 9.04208 12.7035 8.94245 12.7035 8.89264C12.6537 8.84283 12.6038 8.79301 12.554 8.7432C12.5042 8.69338 12.4046 8.69339 12.3548 8.64357C12.1057 8.59376 11.8068 8.54395 11.4581 8.54395C10.6611 8.54395 10.1132 8.59376 9.9139 8.69339C9.81427 8.7432 9.71464 8.79301 9.66483 8.89264C9.5652 8.99227 9.5652 9.04208 9.61501 9.04208C9.86408 9.0919 10.0633 9.19152 10.163 9.34096L10.2128 9.44059C10.2626 9.49041 10.2626 9.59003 10.3124 9.73947C10.3622 9.88891 10.3622 10.0384 10.3622 10.2376C10.3622 10.5365 10.3622 10.8354 10.3622 11.0346C10.3622 11.2837 10.3124 11.4331 10.3124 11.5826C10.3124 11.732 10.2626 11.8317 10.2128 11.8815C10.163 11.9811 10.163 12.0309 10.1131 12.0309C10.1131 12.0309 10.1131 12.0807 10.0633 12.0807C10.0135 12.0807 9.96371 12.1305 9.86408 12.1305C9.81427 12.1305 9.71464 12.0807 9.66483 12.0309C9.5652 11.9811 9.46557 11.8815 9.41576 11.7818C9.31613 11.6822 9.2165 11.5328 9.11687 11.3335C9.01725 11.1343 8.8678 10.935 8.76817 10.6361L8.66855 10.4369C8.61874 10.3372 8.51911 10.138 8.41948 9.88892C8.31986 9.63985 8.22023 9.44059 8.1206 9.19153C8.07079 9.0919 8.02098 9.04208 7.97116 8.99227H7.92135C7.92135 8.99227 7.87153 8.94246 7.82171 8.94246C7.7719 8.94246 7.72209 8.89264 7.67228 8.89264H5.87898C5.67973 8.89264 5.5801 8.94245 5.53029 8.99227L5.48047 9.04208C5.48047 9.04208 5.48047 9.0919 5.48047 9.14171C5.48047 9.19152 5.48047 9.24133 5.53029 9.34096C5.77935 9.93873 6.07824 10.5365 6.37712 11.1343C6.676 11.6822 6.97489 12.1803 7.17414 12.529C7.42321 12.8777 7.62246 13.2264 7.87153 13.5253C8.1206 13.8242 8.27004 14.0235 8.31985 14.1231C8.41948 14.2227 8.46929 14.2725 8.5191 14.3223L8.66855 14.4718C8.76818 14.5714 8.91762 14.7208 9.11687 14.8703C9.31613 15.0197 9.5652 15.1692 9.81426 15.3186C10.0633 15.4681 10.3622 15.5677 10.6611 15.6673C11.0098 15.7669 11.3087 15.8168 11.6076 15.7669H12.3548C12.5042 15.7669 12.6038 15.7171 12.7035 15.6175L12.7533 15.5677C12.7533 15.5179 12.8031 15.5179 12.8031 15.4681C12.8031 15.4182 12.8031 15.3684 12.8031 15.2688C12.8031 15.0695 12.8031 14.9201 12.8529 14.7707C12.9027 14.6212 12.9027 14.5216 12.9525 14.422C13.0024 14.3223 13.0522 14.2725 13.102 14.2227C13.1518 14.1729 13.2016 14.1231 13.2016 14.1231H13.2514C13.351 14.0733 13.5005 14.1231 13.6001 14.2227C13.7496 14.3223 13.899 14.4718 13.9986 14.6212C14.0982 14.7707 14.2477 14.9201 14.447 15.1194C14.6462 15.3186 14.7956 15.4681 14.8953 15.5179L15.0447 15.6175C15.1443 15.6673 15.244 15.7171 15.3934 15.7669C15.5429 15.8168 15.6425 15.8167 15.7421 15.8167L17.4358 15.7669C17.5852 15.7669 17.7347 15.7171 17.8343 15.6673C17.9339 15.6175 17.9837 15.5677 17.9837 15.4681C17.9837 15.4182 17.9837 15.3186 17.9837 15.2688C17.8841 15.1692 17.8841 15.1194 17.8841 15.0695Z" fill="white"/>
</svg>
