<svg width="44" height="19" viewBox="0 0 44 19" fill="none" xmlns="http://www.w3.org/2000/svg">
<path d="M21.0055 9.36358V14.4415H19.3945V1.90123H23.667C24.177 1.89058 24.6841 1.98103 25.1589 2.16736C25.6337 2.35369 26.067 2.63222 26.4336 2.98687C26.804 3.31998 27.0987 3.72851 27.298 4.185C27.4974 4.64148 27.5967 5.13535 27.5893 5.63341C27.5999 6.13413 27.5021 6.63122 27.3026 7.09062C27.1032 7.55001 26.8067 7.96084 26.4336 8.29496C25.6865 9.00737 24.7643 9.36325 23.667 9.36258H21.0055V9.36358ZM21.0055 3.44513V7.82268H23.707C24.0032 7.83146 24.298 7.77833 24.5724 7.66668C24.8469 7.55504 25.095 7.38733 25.301 7.1743C25.5058 6.97513 25.6687 6.73689 25.7799 6.47368C25.8911 6.21048 25.9484 5.92764 25.9484 5.64191C25.9484 5.35618 25.8911 5.07335 25.7799 4.81014C25.6687 4.54693 25.5058 4.3087 25.301 4.10952C25.0976 3.892 24.8503 3.72019 24.5755 3.60548C24.3007 3.49076 24.0047 3.43577 23.707 3.44413H21.0055V3.44513Z" fill="#5F6368"/>
<path d="M31.3023 5.58105C32.493 5.58105 33.4329 5.89924 34.122 6.53561C34.811 7.17198 35.1552 8.04449 35.1546 9.15313V14.4412H33.6137V13.2505H33.5436C32.8766 14.2311 31.9894 14.7214 30.8821 14.7214C29.9368 14.7214 29.1461 14.4412 28.5097 13.8809C28.2043 13.6237 27.9601 13.3016 27.795 12.9381C27.6299 12.5746 27.5479 12.1789 27.5551 11.7797C27.5551 10.8918 27.8907 10.1857 28.5617 9.66143C29.2328 9.13712 30.1286 8.87431 31.2493 8.87297C32.2058 8.87297 32.9936 9.04807 33.6127 9.39828V9.03006C33.6145 8.75792 33.5557 8.48878 33.4406 8.24217C33.3255 7.99555 33.157 7.77764 32.9473 7.60423C32.5213 7.21989 31.9661 7.01017 31.3924 7.01689C30.4925 7.01689 29.7804 7.39645 29.2561 8.15555L27.8373 7.26203C28.6177 6.14138 29.7728 5.58105 31.3023 5.58105ZM29.2181 11.8147C29.217 12.0197 29.2649 12.222 29.3579 12.4048C29.4508 12.5875 29.5861 12.7454 29.7524 12.8653C30.1087 13.1456 30.5509 13.294 31.0041 13.2855C31.6839 13.2844 32.3355 13.0138 32.8162 12.5331C33.3498 12.0308 33.6167 11.4415 33.6167 10.7651C33.1144 10.3648 32.414 10.1647 31.5154 10.1647C30.8611 10.1647 30.3154 10.3225 29.8785 10.638C29.4372 10.9582 29.2181 11.3474 29.2181 11.8147Z" fill="#5F6368"/>
<path d="M43.9971 5.8623L38.6179 18.2245H36.955L38.9511 13.899L35.4141 5.8623H37.1651L39.7216 12.0259H39.7566L42.243 5.8623H43.9971Z" fill="#5F6368"/>
<path d="M14.4962 8.26856C14.4968 7.77763 14.4553 7.28755 14.3721 6.80371H7.57812V9.57833H11.4694C11.3898 10.0215 11.2212 10.4439 10.9739 10.8202C10.7267 11.1964 10.4057 11.5187 10.0306 11.7676V13.5686H12.3529C13.7127 12.3149 14.4962 10.4608 14.4962 8.26856Z" fill="#4285F4"/>
<path d="M7.57737 15.3098C9.52151 15.3098 11.1585 14.6714 12.3522 13.5708L10.0298 11.7697C9.38343 12.208 8.55094 12.4581 7.57737 12.4581C5.69828 12.4581 4.10335 11.1914 3.53302 9.48438H1.14062V11.3405C1.74024 12.5336 2.65969 13.5367 3.79631 14.2376C4.93294 14.9385 6.24201 15.3097 7.57737 15.3098Z" fill="#34A853"/>
<path d="M3.53451 9.4838C3.233 8.58933 3.233 7.62068 3.53451 6.7262V4.87012H1.14212C0.637701 5.87386 0.375 6.98165 0.375 8.105C0.375 9.22836 0.637701 10.3361 1.14212 11.3399L3.53451 9.4838Z" fill="#FBBC04"/>
<path d="M7.57737 3.75252C8.60476 3.73574 9.59749 4.12392 10.341 4.83315L12.3972 2.77696C11.0933 1.55232 9.36603 0.879972 7.57737 0.900863C6.24201 0.900924 4.93294 1.27213 3.79631 1.97305C2.65969 2.67397 1.74024 3.677 1.14062 4.87018L3.53302 6.72626C4.10335 5.01926 5.69828 3.75252 7.57737 3.75252Z" fill="#EA4335"/>
</svg>
