<svg width="24" height="24" viewBox="0 0 24 24" fill="none" xmlns="http://www.w3.org/2000/svg">
<circle cx="12" cy="12" r="12" fill="#F79A38"/>
<path d="M15.7434 13.6761C16.0582 13.3613 16.1032 12.9115 15.8333 12.4617C15.6084 12.1019 15.2037 11.922 14.7539 12.012C14.574 12.0569 14.3941 12.1469 14.2142 12.2818C12.8199 13.2263 10.9309 13.1813 9.5366 12.2368C9.44664 12.1919 9.35669 12.1469 9.26673 12.1019C8.77199 11.877 8.27725 11.967 8.00739 12.4167C7.69256 12.8665 7.73753 13.3613 8.14232 13.766C8.23227 13.856 8.32223 13.901 8.3672 13.9909L8.41218 14.0359C9.04185 14.5306 9.80646 14.8455 10.7959 14.9804L10.2112 15.5651C9.7165 16.0599 9.17679 16.5996 8.68204 17.0943C8.54711 17.2292 8.3672 17.4541 8.3672 17.769C8.3672 18.1738 8.59209 18.5785 8.99688 18.7584C9.13181 18.8484 9.26674 18.8484 9.40167 18.8484C9.62655 18.8484 9.89641 18.7584 10.0763 18.5336C10.751 17.8589 11.2907 17.3192 11.8304 16.7795C11.8754 16.7345 11.8754 16.7345 11.8754 16.7345C11.8754 16.7345 11.9204 16.7345 11.9204 16.7795C12.2802 17.1843 12.685 17.5441 13.0448 17.9489C13.2247 18.1288 13.4046 18.3087 13.5845 18.4886C13.8094 18.7135 13.9893 18.8034 14.2591 18.8034C14.6639 18.8484 15.1137 18.5785 15.2936 18.1737C15.4735 17.8139 15.3836 17.3642 15.0687 17.0943C14.619 16.6445 14.1692 16.1498 13.6744 15.7L12.9098 14.9354C13.3146 14.8905 13.7644 14.8005 14.1692 14.6206C14.8438 14.3957 15.3386 14.0809 15.7434 13.6761Z" fill="white"/>
<path d="M11.8754 12.4167C13.8094 12.4167 15.3836 10.8875 15.3836 8.95354C15.3836 8.00903 15.0237 7.1095 14.3491 6.43485C13.6744 5.7602 12.8199 5.40039 11.9204 5.40039C9.98636 5.40039 8.45716 6.97457 8.41218 8.86359C8.41218 9.8081 8.772 10.6627 9.44664 11.3373C10.0763 12.0569 10.9309 12.4167 11.8754 12.4167ZM10.8859 7.91908C11.1558 7.64922 11.5156 7.51429 11.8754 7.51429C12.685 7.51429 13.2697 8.14396 13.2697 8.90857C13.2697 9.71815 12.64 10.3028 11.8754 10.3028C11.0658 10.3028 10.4811 9.67317 10.4811 8.90857C10.4811 8.54875 10.616 8.18894 10.8859 7.91908Z" fill="white"/>
<path d="M15.7434 13.6761C16.0582 13.3613 16.1032 12.9115 15.8333 12.4617C15.6084 12.1019 15.2037 11.922 14.7539 12.012C14.574 12.0569 14.3941 12.1469 14.2142 12.2818C12.8199 13.2263 10.9309 13.1813 9.5366 12.2368C9.44664 12.1919 9.35669 12.1469 9.26673 12.1019C8.77199 11.877 8.27725 11.967 8.00739 12.4167C7.69256 12.8665 7.73753 13.3613 8.14232 13.766C8.23227 13.856 8.32223 13.901 8.3672 13.9909L8.41218 14.0359C9.04185 14.5306 9.80646 14.8455 10.7959 14.9804L10.2112 15.5651C9.7165 16.0599 9.17679 16.5996 8.68204 17.0943C8.54711 17.2292 8.3672 17.4541 8.3672 17.769C8.3672 18.1738 8.59209 18.5785 8.99688 18.7584C9.13181 18.8484 9.26674 18.8484 9.40167 18.8484C9.62655 18.8484 9.89641 18.7584 10.0763 18.5336C10.751 17.8589 11.2907 17.3192 11.8304 16.7795C11.8754 16.7345 11.8754 16.7345 11.8754 16.7345C11.8754 16.7345 11.9204 16.7345 11.9204 16.7795C12.2802 17.1843 12.685 17.5441 13.0448 17.9489C13.2247 18.1288 13.4046 18.3087 13.5845 18.4886C13.8094 18.7135 13.9893 18.8034 14.2591 18.8034C14.6639 18.8484 15.1137 18.5785 15.2936 18.1737C15.4735 17.8139 15.3836 17.3642 15.0687 17.0943C14.619 16.6445 14.1692 16.1498 13.6744 15.7L12.9098 14.9354C13.3146 14.8905 13.7644 14.8005 14.1692 14.6206C14.8438 14.3957 15.3386 14.0809 15.7434 13.6761Z" fill="white"/>
</svg>
