<svg width="33" height="29" viewBox="0 0 33 29" fill="none" xmlns="http://www.w3.org/2000/svg">
<path d="M3.94661 19.8623H1.46701C1.29733 19.8623 1.15303 19.9856 1.12656 20.1531L0.123697 26.5114C0.103756 26.6369 0.200923 26.75 0.328185 26.75H1.51197C1.68165 26.75 1.82595 26.6267 1.85242 26.4589L2.1229 24.7439C2.149 24.576 2.29366 24.4528 2.46298 24.4528H3.24794C4.88131 24.4528 5.82399 23.6624 6.07017 22.0961C6.18112 21.4108 6.07488 20.8724 5.75401 20.4953C5.40159 20.0813 4.77653 19.8623 3.94661 19.8623ZM4.23268 22.1846C4.09708 23.0743 3.41726 23.0743 2.75993 23.0743H2.38576L2.64826 21.4126C2.66385 21.3122 2.75086 21.2382 2.85238 21.2382H3.02388C3.47165 21.2382 3.89404 21.2382 4.1123 21.4935C4.24247 21.6458 4.28235 21.872 4.23268 22.1846Z" fill="#253B80"/>
<path d="M11.3583 22.1546H10.1709C10.0698 22.1546 9.98241 22.2286 9.96682 22.329L9.91424 22.6611L9.83122 22.5408C9.57415 22.1677 9.00094 22.043 8.4288 22.043C7.11667 22.043 5.99597 23.0368 5.77771 24.4308C5.66423 25.1262 5.82557 25.7912 6.22004 26.2549C6.58188 26.6813 7.09963 26.859 7.71563 26.859C8.77288 26.859 9.35915 26.1791 9.35915 26.1791L9.30622 26.5091C9.28628 26.6353 9.38344 26.7484 9.50998 26.7484H10.5796C10.7496 26.7484 10.8932 26.6251 10.92 26.4572L11.5617 22.3932C11.5821 22.2681 11.4852 22.1546 11.3583 22.1546ZM9.70323 24.4656C9.58866 25.144 9.05024 25.5994 8.36354 25.5994C8.01874 25.5994 7.74319 25.4888 7.56625 25.2793C7.39077 25.0711 7.32406 24.7749 7.37989 24.445C7.48685 23.7724 8.03433 23.3022 8.71052 23.3022C9.04771 23.3022 9.32181 23.4142 9.50237 23.6256C9.68329 23.8391 9.75508 24.1372 9.70323 24.4656Z" fill="#253B80"/>
<path d="M17.6807 22.1543H16.4875C16.3737 22.1543 16.2667 22.2109 16.2022 22.3055L14.5565 24.7296L13.8589 22.4001C13.815 22.2544 13.6805 22.1543 13.5282 22.1543H12.3557C12.2132 22.1543 12.1142 22.2935 12.1595 22.4277L13.4738 26.2847L12.2382 28.029C12.141 28.1664 12.2389 28.3553 12.4068 28.3553H13.5986C13.7117 28.3553 13.8176 28.3002 13.8817 28.2074L17.8504 22.4788C17.9454 22.3417 17.8479 22.1543 17.6807 22.1543Z" fill="#253B80"/>
<path d="M21.6341 19.8613H19.1541C18.9848 19.8613 18.8405 19.9846 18.8141 20.1521L17.8112 26.5105C17.7913 26.6359 17.8884 26.749 18.015 26.749H19.2876C19.4058 26.749 19.5069 26.6627 19.5254 26.5453L19.81 24.7429C19.8361 24.5751 19.9808 24.4518 20.1501 24.4518H20.9347C22.5685 24.4518 23.5108 23.6614 23.7573 22.0951C23.8686 21.4099 23.7617 20.8714 23.4408 20.4944C23.0887 20.0803 22.464 19.8613 21.6341 19.8613ZM21.9202 22.1836C21.7849 23.0733 21.1051 23.0733 20.4474 23.0733H20.0736L20.3365 21.4117C20.3521 21.3112 20.4384 21.2373 20.5402 21.2373H20.7117C21.1591 21.2373 21.5819 21.2373 21.8002 21.4925C21.9303 21.6448 21.9699 21.871 21.9202 22.1836Z" fill="#179BD7"/>
<path d="M29.0443 22.1546H27.8576C27.7557 22.1546 27.6691 22.2286 27.6539 22.329L27.6013 22.6611L27.5179 22.5408C27.2608 22.1677 26.688 22.043 26.1158 22.043C24.8037 22.043 23.6834 23.0368 23.4651 24.4308C23.352 25.1262 23.5126 25.7912 23.9071 26.2549C24.2696 26.6813 24.7867 26.859 25.4027 26.859C26.4599 26.859 27.0462 26.1791 27.0462 26.1791L26.9933 26.5091C26.9733 26.6353 27.0705 26.7484 27.1977 26.7484H28.267C28.4363 26.7484 28.5806 26.6251 28.607 26.4572L29.2492 22.3932C29.2687 22.2681 29.1716 22.1546 29.0443 22.1546ZM27.3892 24.4656C27.2753 25.144 26.7362 25.5994 26.0495 25.5994C25.7054 25.5994 25.4291 25.4888 25.2522 25.2793C25.0767 25.0711 25.0107 24.7749 25.0658 24.445C25.1735 23.7724 25.7203 23.3022 26.3965 23.3022C26.7337 23.3022 27.0078 23.4142 27.1883 23.6256C27.37 23.8391 27.4418 24.1372 27.3892 24.4656Z" fill="#179BD7"/>
<path d="M30.4461 20.0351L29.4284 26.5098C29.4084 26.6353 29.5056 26.7484 29.6321 26.7484H30.6553C30.8254 26.7484 30.9697 26.6251 30.9958 26.4573L31.9994 20.0993C32.0193 19.9738 31.9221 19.8604 31.7956 19.8604H30.6499C30.5487 19.8607 30.4617 19.9347 30.4461 20.0351Z" fill="#179BD7"/>
<path d="M13.7482 15.2171L14.0276 13.4425L13.4053 13.4281H10.4336L12.4988 0.333591C12.5052 0.294062 12.526 0.257203 12.5564 0.231028C12.5869 0.204853 12.6259 0.19043 12.6665 0.19043H17.6771C19.3406 0.19043 20.4886 0.536582 21.0879 1.21981C21.3689 1.54032 21.5479 1.87525 21.6344 2.24384C21.7252 2.63059 21.7268 3.09266 21.6381 3.65623L21.6317 3.69736V4.05847L21.9127 4.21765C22.1493 4.34319 22.3374 4.48688 22.4816 4.65141C22.722 4.92545 22.8774 5.27374 22.9431 5.68666C23.011 6.11134 22.9886 6.61668 22.8774 7.18879C22.7492 7.84691 22.542 8.42009 22.2621 8.88911C22.0046 9.32126 21.6766 9.6797 21.2872 9.95748C20.9154 10.2214 20.4736 10.4217 19.9741 10.5499C19.4902 10.676 18.9384 10.7395 18.3331 10.7395H17.9432C17.6643 10.7395 17.3935 10.84 17.1809 11.02C16.9678 11.2037 16.8267 11.4548 16.7835 11.7294L16.7541 11.8891L16.2605 15.0167L16.2381 15.1316C16.2322 15.1679 16.222 15.1861 16.2071 15.1984C16.1937 15.2096 16.1745 15.2171 16.1558 15.2171H13.7482Z" fill="#253B80"/>
<path d="M22.1781 3.73926C22.1631 3.83488 22.146 3.93263 22.1268 4.03306C21.466 7.42567 19.2053 8.59767 16.318 8.59767H14.848C14.4949 8.59767 14.1973 8.85408 14.1423 9.20237L13.3896 13.9759L13.1765 15.3289C13.1407 15.5576 13.317 15.7638 13.5478 15.7638H16.1551C16.4639 15.7638 16.7262 15.5394 16.7748 15.2349L16.8004 15.1025L17.2913 11.9871L17.3229 11.8161C17.3709 11.5106 17.6337 11.2862 17.9425 11.2862H18.3325C20.8586 11.2862 22.8362 10.2606 23.4142 7.29266C23.6556 6.05282 23.5306 5.01756 22.8917 4.28947C22.6984 4.06992 22.4585 3.88776 22.1781 3.73926Z" fill="#179BD7"/>
<path d="M21.489 3.46374C21.3881 3.43436 21.2839 3.40765 21.1771 3.38361C21.0697 3.36011 20.9597 3.33928 20.8464 3.32111C20.4501 3.25701 20.0158 3.22656 19.5505 3.22656H15.6232C15.5265 3.22656 15.4346 3.24846 15.3523 3.28799C15.1712 3.37507 15.0366 3.54654 15.004 3.75647L14.1686 9.04812L14.1445 9.2025C14.1996 8.85421 14.4971 8.5978 14.8502 8.5978H16.3203C19.2075 8.5978 21.4682 7.42526 22.129 4.03318C22.1488 3.93276 22.1653 3.835 22.1803 3.73938C22.0131 3.65071 21.832 3.57485 21.637 3.51022C21.5889 3.49419 21.5393 3.4787 21.489 3.46374Z" fill="#222D65"/>
<path d="M15.1357 4.11269C15.1682 3.90276 15.3029 3.73129 15.4839 3.64475C15.5667 3.60522 15.6581 3.58332 15.7548 3.58332H19.6821C20.1474 3.58332 20.5817 3.61377 20.978 3.67787C21.0913 3.69603 21.2013 3.71686 21.3087 3.74037C21.4155 3.76441 21.5197 3.79111 21.6207 3.82049C21.6709 3.83545 21.7206 3.85094 21.7692 3.86643C21.9641 3.93107 22.1452 4.00746 22.3124 4.0956C22.509 2.84187 22.3108 1.98824 21.633 1.21527C20.8856 0.364315 19.5368 0 17.8109 0H12.8002C12.4476 0 12.1469 0.256409 12.0924 0.605232L10.0053 13.8343C9.9642 14.0961 10.1661 14.3322 10.43 14.3322H13.5235L14.3002 9.40434L15.1357 4.11269Z" fill="#253B80"/>
</svg>
