<svg width="24" height="24" viewBox="0 0 24 24" fill="none" xmlns="http://www.w3.org/2000/svg">
<circle cx="12" cy="12" r="12" fill="#2F89CE"/>
<path d="M5.60886 12.2246L8.36772 13.2534L9.4432 16.7136C9.48996 16.9474 9.77052 16.9942 9.95756 16.8539L11.5006 15.5914C11.6409 15.4511 11.8747 15.4511 12.0618 15.5914L14.8206 17.6021C15.0077 17.7423 15.2882 17.6488 15.335 17.415L17.3924 7.59539C17.4392 7.36159 17.2054 7.12779 16.9716 7.22131L5.60886 11.6168C5.3283 11.7103 5.3283 12.1311 5.60886 12.2246ZM9.30292 12.739L14.7271 9.41903C14.8206 9.37227 14.9141 9.51256 14.8206 9.55932L10.3784 13.721C10.2381 13.8612 10.0978 14.0483 10.0978 14.2821L9.95756 15.4043C9.95756 15.5446 9.72376 15.5914 9.677 15.4043L9.11587 13.3469C8.97559 13.1131 9.06912 12.8325 9.30292 12.739Z" fill="white"/>
</svg>
